<?xml version="1.0" encoding="UTF-8" standalone="no"?>
<!-- Created with Inkscape (http://www.inkscape.org/) -->

<svg
   xmlns:dc="http://purl.org/dc/elements/1.1/"
   xmlns:cc="http://creativecommons.org/ns#"
   xmlns:rdf="http://www.w3.org/1999/02/22-rdf-syntax-ns#"
   xmlns:svg="http://www.w3.org/2000/svg"
   xmlns="http://www.w3.org/2000/svg"
   xmlns:sodipodi="http://sodipodi.sourceforge.net/DTD/sodipodi-0.dtd"
   xmlns:inkscape="http://www.inkscape.org/namespaces/inkscape"
   id="svg2"
   viewBox="0 0 504 504"
   version="1.0"
   sodipodi:docname="n.svg"
   width="504"
   height="504"
   inkscape:version="0.92.5 (2060ec1f9f, 2020-04-08)">
  <defs
     id="defs790">
    <clipPath
       clipPathUnits="userSpaceOnUse"
       id="clipPath794">
      <rect
         id="rect796"
         width="504"
         height="504"
         x="504"
         y="0" />
    </clipPath>
  </defs>
  <sodipodi:namedview
     pagecolor="#ffffff"
     bordercolor="#666666"
     borderopacity="1"
     objecttolerance="10"
     gridtolerance="10"
     guidetolerance="10"
     inkscape:pageopacity="0"
     inkscape:pageshadow="2"
     inkscape:window-width="2558"
     inkscape:window-height="1414"
     id="namedview788"
     showgrid="false"
     inkscape:zoom="2.1830519"
     inkscape:cx="348.264"
     inkscape:cy="236.20225"
     inkscape:window-x="0"
     inkscape:window-y="0"
     inkscape:window-maximized="0"
     inkscape:current-layer="svg2" />
  <g
     id="layer1"
     clip-path="url(#clipPath794)"
     transform="translate(-497,0.45807427)">
    <g
       id="g2397"
       transform="translate(-75.368,-269.79)">
      <path
         id="path2396"
         style="fill:#000000"
         d="m 157.19,457.86 c -1.46,-13.67 1.35,-29.06 7.56,-41.36 5.12,-10.15 12.11,-18.38 33.98,-40 12.97,-12.83 23.85,-24.53 26.97,-29 10.14,-14.55 17.9,-32.54 21.66,-50.23 1.93,-9.07 2.52,-33.8 1.06,-44.05 l -0.83,-5.79 -6.17,4.39 c -11.51,8.18 -23.12,15 -43.83,25.77 -39.56,20.57 -46.31,26.67 -61.27,55.34 -8.36,16.02 -13.15,23.14 -19.08,28.37 -4.77,4.2 -11.75,7.2 -16.72,7.2 -6.569,0 -12.765,-6.19 -12.773,-12.75 l -0.004,-3.25 h -5.45 c -8.085,0 -15.238,-1.8 -22.774,-5.72 C 38.95,336.07 31.786,313.08 40.714,286.43 44.985,273.68 49.067,266.24 64.557,243 80.654,218.84 85.6,209.96 89.9,197.5 c 3.219,-9.33 3.279,-9.83 3.331,-27.5 0.067,-22.53 -0.059,-22.25 17.949,-40 15.06,-14.83 21.56,-23.86 21.56,-29.91 0,-2.162 -0.92,-15.136 -2.06,-28.832 -1.13,-13.697 -1.92,-25.999 -1.75,-27.339 0.3,-2.299 2.03,-1.407 30.92,15.938 l 30.6,18.373 18.19,-19.365 C 218.65,48.214 227.18,39.5 227.6,39.5 c 0.42,0 6.24,12.038 12.93,26.75 6.7,14.712 12.55,26.665 13.01,26.562 6.73,-1.52 20.93,-2.466 30.2,-2.01 35.46,1.741 65.89,15.428 91.5,41.148 23.65,23.75 39.07,51.15 54.08,96.05 20.99,62.83 34.72,142.81 37.08,216.05 l 0.66,20.45 H 312.48 157.9 Z"
         transform="translate(572.77,269.79)"
         inkscape:connector-curvature="0" />
      <path
         id="path2388"
         style="fill:#ffffff"
         d="m 126.72,187.21 c 6.43,-3.18 10.29,-6 16,-11.7 6.91,-6.9 15.02,-18.65 15.02,-21.76 0,-3.35 -9.35,-4.18 -15.51,-1.39 -5.49,2.5 -9.07,6.88 -18.28,22.37 -11.24,18.91 -10.86,18.09 -8.04,17.31 1.28,-0.35 6.15,-2.53 10.81,-4.83 z"
         transform="translate(572.77,269.79)"
         inkscape:connector-curvature="0" />
      <path
         id="path2386"
         style="fill:#ffffff"
         d="m 76.493,304.54 c 1.238,-1.83 2.25,-4.42 2.25,-5.74 0,-5.68 -5.572,-11.31 -11.2,-11.3 -4.351,0.01 -8.801,3.76 -11.528,9.72 -2.061,4.5 -2.693,7.72 -3.075,15.64 l -0.48,9.98 10.891,-7.48 c 5.991,-4.11 11.905,-8.98 13.142,-10.82 z"
         transform="translate(572.77,269.79)"
         inkscape:connector-curvature="0" />
      <path
         id="path2384"
         style="fill:#ffffff"
         d="m 458.38,454.95 c 2.51,-2.51 2.54,-2.71 1.89,-13.25 -3.64,-59.55 -10,-105.29 -22.14,-159.2 -10.28,-45.67 -20.78,-77.34 -34.5,-104 -9.03,-17.56 -18.01,-30.14 -30.38,-42.53 -19.28,-19.31 -40.06,-30.74 -66.59,-36.611 -18.53,-4.102 -53.48,-2.712 -58.9,2.341 -2.95,2.74 -2.43,8.42 0.99,10.96 2.38,1.77 3,1.79 12.5,0.36 37.43,-5.64 72.03,5.22 99.64,31.26 27.07,25.53 46.05,68.31 62.24,140.22 11.73,52.09 18.17,97.19 21.65,151.5 0.96,15.07 1.32,17.25 3.2,19.25 2.85,3.04 7.19,2.92 10.4,-0.3 z"
         transform="translate(572.77,269.79)"
         inkscape:connector-curvature="0" />
    </g>
    <g
       id="g2417"
       transform="translate(282.86,-489.52)">
      <path
         id="path2452"
         style="fill:#000000"
         d="m 155.21,472.75 c -8.08,-4.03 -9.28,-27.81 -2.43,-47.96 5.86,-17.22 12.62,-26.32 38.46,-51.77 23.28,-22.93 29.48,-30.48 36.72,-44.7 8.65,-16.97 12.05,-30.4 12.96,-51.05 0.32,-7.29 0.34,-13.25 0.05,-13.25 -0.29,0 -5.2,2.85 -10.9,6.34 -5.7,3.48 -18.53,10.48 -28.52,15.55 -37.9,19.24 -43.85,24.89 -60.76,57.69 -3.14,6.09 -7.72,13.64 -10.19,16.78 -7.88,10.05 -20.56,17.64 -29.45,17.64 -3.794,0 -10.746,-2.61 -14.429,-5.42 -1.717,-1.31 -3.934,-4.18 -4.927,-6.38 -1.633,-3.63 -2.243,-4.07 -6.446,-4.69 -28.706,-4.23 -49.063,-29.2 -46.807,-57.42 1.451,-18.14 9.614,-36.28 30.142,-66.97 14.049,-21 19.759,-31.19 23.676,-42.24 2.03,-5.73 2.266,-8.28 2.304,-24.88 l 0.043,-18.5 3.239,-6.84 c 2.699,-5.7 5.539,-9.12 17.025,-20.5 7.58,-7.51 15.08,-15.59 16.68,-17.96 l 2.9,-4.3 -2.2,-27.7 c -3.02,-38.182 -3.03,-38.083 3.18,-40.693 4.23,-1.778 4.02,-1.877 35.99,17.358 14.75,8.874 27.16,16.135 27.58,16.135 0.42,0 8.32,-8.09 17.56,-17.978 13.92,-14.899 17.39,-18.09 20.26,-18.628 6.11,-1.146 7.55,0.899 19.98,28.219 l 11.4,25.044 6.2,-0.909 c 8.91,-1.305 30.6,-0.154 41.86,2.22 20.46,4.311 40.77,13.106 57.21,24.772 10.98,7.79 28.66,25.67 36.84,37.26 17.69,25.05 30.51,53.08 42.26,92.42 20.17,67.54 32.6,146.52 32.93,209.29 0.1,19.77 0.06,20.27 -2.17,22.5 l -2.28,2.29 -156.72,0.24 c -123.65,0.19 -157.25,-0.02 -159.22,-1.01 z"
         transform="translate(-267.69,489.52)"
         inkscape:connector-curvature="0" />
      <path
         id="path2390"
         style="fill:#ffffff"
         d="m 155.79,67.859 c -8.85,-5.313 -16.21,-9.537 -16.37,-9.385 -0.15,0.152 0.26,7.471 0.92,16.265 l 1.19,15.989 15.17,-6.604 15.18,-6.604 z"
         transform="translate(-267.69,489.52)"
         inkscape:connector-curvature="0" />
      <path
         id="path2421"
         style="fill:#ffffff"
         d="m 458.84,455.47 c 2.89,-2.88 2.89,-3.01 -0.22,-42.45 -5.8,-73.68 -23.77,-160.39 -43.62,-210.5 -5.81,-14.67 -16.89,-35.65 -24.56,-46.5 -16.46,-23.29 -40.93,-42.35 -65.82,-51.29 -14.92,-5.364 -26.48,-7.217 -44.41,-7.125 -10.72,0.055 -19.12,0.629 -23.97,1.636 -4.1,0.849 -7.99,1.349 -8.62,1.109 -0.64,-0.25 -4.67,-8.185 -8.96,-17.639 -4.29,-9.455 -8.92,-19.637 -10.29,-22.625 l -2.48,-5.435 -15.59,16.102 -15.59,16.101 -27.17,11.691 -27.16,11.695 -6.55,8.77 c -3.61,4.82 -11.07,12.94 -16.6,18.04 -14.83,13.68 -14.51,12.94 -14.6,33.97 -0.06,15.06 -0.38,18.54 -2.3,25 -3.786,12.73 -12.22,28.62 -26.529,50 -15.697,23.45 -23.863,39.04 -26.195,50.01 -1.982,9.32 -1.399,20.97 1.358,27.11 4.868,10.85 16.831,19.45 28.568,20.55 l 6.421,0.6 6.698,-8.89 c 3.684,-4.88 7.678,-9.43 8.876,-10.09 4.843,-2.71 10.063,-0.99 12.153,4 1.77,4.19 0.89,6.21 -7.6,17.52 -3.85,5.12 -6.854,10.07 -6.678,11 0.58,3.06 6.798,2.7 11.438,-0.66 6.42,-4.65 10.71,-10.66 19.43,-27.21 4.47,-8.49 10.08,-18.18 12.47,-21.53 9.17,-12.87 23.01,-22.89 51.81,-37.53 28.34,-14.4 53.4,-30.38 60.8,-38.77 8.72,-9.89 12.42,-21.42 11.55,-36.04 -0.65,-10.96 0.46,-14.23 5.4,-15.95 2.5,-0.87 3.83,-0.78 6.46,0.47 4.18,1.99 5.47,5.43 6.16,16.44 1.06,16.8 -6.47,36.65 -18.57,48.96 l -6.64,6.76 0.8,6.37 c 1.2,9.5 0,31.09 -2.3,41.38 -4.54,20.28 -13.07,39.59 -24.24,54.84 -3.31,4.53 -15.67,17.74 -27.74,29.66 -21.53,21.27 -27.76,28.8 -32.65,39.5 -3.12,6.8 -5.33,17.26 -5.36,25.25 l -0.01,6.25 h 141.44 c 93.21,0 141.65,0.34 142.06,1 1.21,1.96 6.53,1.05 9.13,-1.55 z"
         transform="translate(-267.69,489.52)"
         inkscape:connector-curvature="0" />
      <path
         id="path2423"
         style="fill:#000000"
         d="m 115.28,190.86 c 4.52,-8.52 17.57,-29.5 20.22,-32.52 5.39,-6.14 13.75,-8.77 20.14,-6.34 1.41,0.53 2.57,1.55 2.57,2.27 0,3.11 -8.11,14.86 -15.03,21.76 -5.71,5.7 -9.57,8.52 -16,11.7 -4.66,2.3 -9.53,4.48 -10.81,4.83 -2.18,0.61 -2.26,0.5 -1.09,-1.7 z"
         transform="translate(-267.69,489.52)"
         inkscape:connector-curvature="0" />
      <path
         id="path2425"
         style="fill:#000000"
         d="m 53.403,313.38 c 0.381,-7.92 1.013,-11.14 3.074,-15.64 2.728,-5.96 7.177,-9.71 11.529,-9.72 5.627,-0.01 11.2,5.62 11.2,11.3 0,4.31 -4.313,8.95 -15.392,16.56 l -10.892,7.48 z"
         transform="translate(-267.69,489.52)"
         inkscape:connector-curvature="0" />
    </g>
  </g>
  <metadata
     id="metadata785">
    <rdf:RDF>
      <cc:Work>
        <dc:format>image/svg+xml</dc:format>
        <dc:type
           rdf:resource="http://purl.org/dc/dcmitype/StillImage" />
        <cc:license
           rdf:resource="http://creativecommons.org/publicdomain/zero/1.0/" />
        <dc:publisher>
          <cc:Agent
             rdf:about="http://openclipart.org/">
            <dc:title>Openclipart</dc:title>
          </cc:Agent>
        </dc:publisher>
        <dc:title></dc:title>
        <dc:date>2008-08-26T08:54:36</dc:date>
        <dc:description>A light and dark (black and white) knight for use in chess board templates. Source: http://commons.wikimedia.org/wiki/Image:Chess_tile_nl.png http://commons.wikimedia.org/wiki/Image:Chess_tile_nd.png</dc:description>
        <dc:source>https://openclipart.org/detail/18641/chess-tile---knight-by-portablejim</dc:source>
        <dc:creator>
          <cc:Agent>
            <dc:title>portablejim</dc:title>
          </cc:Agent>
        </dc:creator>
        <dc:subject>
          <rdf:Bag>
            <rdf:li>black</rdf:li>
            <rdf:li>chess</rdf:li>
            <rdf:li>externalsource</rdf:li>
            <rdf:li>game</rdf:li>
            <rdf:li>icon</rdf:li>
            <rdf:li>knight</rdf:li>
            <rdf:li>white</rdf:li>
          </rdf:Bag>
        </dc:subject>
      </cc:Work>
      <cc:License
         rdf:about="http://creativecommons.org/publicdomain/zero/1.0/">
        <cc:permits
           rdf:resource="http://creativecommons.org/ns#Reproduction" />
        <cc:permits
           rdf:resource="http://creativecommons.org/ns#Distribution" />
        <cc:permits
           rdf:resource="http://creativecommons.org/ns#DerivativeWorks" />
      </cc:License>
    </rdf:RDF>
  </metadata>
</svg>
