<?xml version="1.0" encoding="UTF-8" standalone="no"?>
<!-- Created with Inkscape (http://www.inkscape.org/) -->

<svg
   xmlns:dc="http://purl.org/dc/elements/1.1/"
   xmlns:cc="http://creativecommons.org/ns#"
   xmlns:rdf="http://www.w3.org/1999/02/22-rdf-syntax-ns#"
   xmlns:svg="http://www.w3.org/2000/svg"
   xmlns="http://www.w3.org/2000/svg"
   xmlns:sodipodi="http://sodipodi.sourceforge.net/DTD/sodipodi-0.dtd"
   xmlns:inkscape="http://www.inkscape.org/namespaces/inkscape"
   id="svg2"
   viewBox="0 0 504 504"
   version="1.0"
   sodipodi:docname="p.svg"
   inkscape:version="0.92.5 (2060ec1f9f, 2020-04-08)"
   width="504"
   height="504">
  <defs
     id="defs1079">
    <clipPath
       clipPathUnits="userSpaceOnUse"
       id="clipPath1083">
      <rect
         id="rect1085"
         width="504"
         height="504"
         x="504"
         y="0" />
    </clipPath>
  </defs>
  <sodipodi:namedview
     pagecolor="#ffffff"
     bordercolor="#666666"
     borderopacity="1"
     objecttolerance="10"
     gridtolerance="10"
     guidetolerance="10"
     inkscape:pageopacity="0"
     inkscape:pageshadow="2"
     inkscape:window-width="2558"
     inkscape:window-height="1414"
     id="namedview1077"
     showgrid="false"
     inkscape:zoom="3.0873016"
     inkscape:cx="321.35314"
     inkscape:cy="136.55616"
     inkscape:window-x="0"
     inkscape:window-y="0"
     inkscape:window-maximized="0"
     inkscape:current-layer="svg2" />
  <g
     id="layer1"
     clip-path="url(#clipPath1083)"
     transform="translate(-476)">
    <g
       id="g2393"
       transform="translate(17.839,-202.89)">
      <path
         id="path2505"
         style="fill:#000000"
         d="m 559.76,645.59 c -2.22,-13.35 -1.75,-39.94 0.95,-53.48 8.23,-41.36 32.37,-77.37 66.68,-99.5 10.97,-7.08 21.38,-12.03 36.5,-17.38 0.93,-0.33 -1.53,-2.1 -6.5,-4.68 -11.96,-6.21 -22.72,-17.3 -28.86,-29.73 -6.01,-12.17 -8,-21.41 -7.32,-33.98 0.97,-18.05 7.66,-32.94 20.68,-46.02 11.64,-11.7 30.03,-19.98 44.36,-19.98 h 5.03 l -5.44,-2.7 c -7.1,-3.51 -15.86,-12.34 -19.34,-19.46 -7.98,-16.38 -4.91,-35.67 7.68,-48.26 19.31,-19.31 54.11,-19.31 73.42,0 12.59,12.59 15.66,31.88 7.68,48.26 -3.47,7.12 -12.24,15.95 -19.33,19.46 l -5.45,2.7 h 5.04 c 14.33,0 32.71,8.28 44.35,19.98 13.02,13.08 19.71,27.97 20.69,46.02 0.68,12.57 -1.31,21.81 -7.32,33.98 -6.14,12.43 -16.91,23.52 -28.87,29.73 -4.97,2.58 -7.43,4.35 -6.5,4.68 15.13,5.35 25.53,10.3 36.5,17.38 34.32,22.13 58.45,58.14 66.68,99.5 2.7,13.54 3.17,40.13 0.95,53.48 l -1.37,8.25 H 710.89 561.14 Z"
         inkscape:connector-curvature="0" />
    </g>
    <g
       id="g2407"
       transform="translate(-351.11,-272.99)">
      <path
         id="path2558"
         style="fill:#000000"
         d="m 99.308,458.99 c -6.102,-2.46 -8.646,-14.33 -8.673,-40.49 -0.022,-21.65 1.499,-31.06 8.339,-51.61 12.976,-38.99 41.396,-72.77 76.586,-91.04 l 10.06,-5.22 -5.06,-4.12 c -10.79,-8.79 -20.39,-23.95 -24.75,-39.06 -1.86,-6.47 -2.28,-10.28 -2.23,-20.45 0.06,-10.86 0.43,-13.61 2.84,-21 7.54,-23.07 20.75,-38.57 41.58,-48.82 l 9.5,-4.68 -4.23,-6.3 c -8.46,-12.63 -11.1,-27.796 -7.28,-41.935 4.24,-15.733 12.73,-26.072 27.3,-33.251 18.81,-9.274 38.61,-9.274 57.42,0 14.57,7.179 23.06,17.518 27.3,33.251 3.82,14.139 1.18,29.305 -7.28,41.935 l -4.23,6.3 9.5,4.68 c 20.83,10.25 34.04,25.75 41.58,48.82 2.41,7.39 2.78,10.14 2.84,21 0.05,10.17 -0.37,13.98 -2.23,20.45 -4.36,15.11 -13.96,30.27 -24.75,39.06 l -5.06,4.12 10.06,5.22 c 35.19,18.27 63.61,52.05 76.59,91.04 6.84,20.55 8.36,29.96 8.33,51.61 -0.02,26.65 -2.56,38.11 -8.98,40.55 -3.23,1.22 -302.02,1.17 -305.07,-0.06 z"
         transform="translate(387.21,272.99)"
         inkscape:connector-curvature="0" />
      <path
         id="path2384"
         style="fill:#ffffff"
         d="m 394.73,439.25 c 0.42,-1.51 0.74,-11.07 0.7,-21.25 -0.07,-20.62 -1.75,-31.25 -7.55,-47.69 -14.2,-40.25 -47.26,-73.64 -86.88,-87.76 -9.96,-3.54 -11.78,-4.85 -12.57,-9.05 -0.97,-5.21 1.26,-7.7 11.27,-12.52 31.24,-15.08 42.62,-53.88 24.81,-84.6 -4.83,-8.33 -16.11,-18.59 -25.64,-23.31 -7.96,-3.94 -12.1,-5 -25.97,-6.61 -5.14,-0.6 -8.53,-3.15 -9.54,-7.17 -1.05,-4.17 1.51,-7.45 8.6,-11.03 8.05,-4.05 13.36,-9.18 16.84,-16.26 2.36,-4.8 2.7,-6.7 2.7,-14.998 0,-8.364 -0.33,-10.177 -2.78,-15.161 -3.45,-7.02 -8.99,-12.123 -17.6,-16.201 -6.32,-2.997 -7.18,-3.138 -19.12,-3.138 -11.94,0 -12.8,0.141 -19.12,3.138 -8.61,4.078 -14.15,9.181 -17.6,16.201 -2.45,4.984 -2.78,6.797 -2.78,15.161 0,8.298 0.34,10.198 2.7,14.998 3.48,7.08 8.79,12.21 16.84,16.26 7.09,3.58 9.65,6.86 8.6,11.03 -1.01,4.02 -4.4,6.57 -9.54,7.17 -13.87,1.61 -18.01,2.67 -25.97,6.61 -9.53,4.72 -20.81,14.98 -25.64,23.31 -7.28,12.55 -9.98,27.84 -7.52,42.47 2.95,17.47 15.72,34.12 32.33,42.13 10.01,4.82 12.24,7.31 11.27,12.52 -0.79,4.2 -2.61,5.51 -12.57,9.05 -39.62,14.12 -72.68,47.51 -86.88,87.76 -5.8,16.44 -7.48,27.07 -7.55,47.69 -0.04,10.18 0.28,19.74 0.7,21.25 l 0.77,2.75 H 252 393.96 Z"
         transform="translate(387.21,272.99)"
         inkscape:connector-curvature="0" />
    </g>
  </g>
  <metadata
     id="metadata1074">
    <rdf:RDF>
      <cc:Work>
        <dc:format>image/svg+xml</dc:format>
        <dc:type
           rdf:resource="http://purl.org/dc/dcmitype/StillImage" />
        <cc:license
           rdf:resource="http://creativecommons.org/publicdomain/zero/1.0/" />
        <dc:publisher>
          <cc:Agent
             rdf:about="http://openclipart.org/">
            <dc:title>Openclipart</dc:title>
          </cc:Agent>
        </dc:publisher>
        <dc:title></dc:title>
        <dc:date>2008-08-26T09:02:55</dc:date>
        <dc:description>A light and dark (black and white) pawn for use in chess board templates. Source: http://commons.wikimedia.org/wiki/Image:Chess_tile_pl.png http://commons.wikimedia.org/wiki/Image:Chess_tile_pd.png</dc:description>
        <dc:source>https://openclipart.org/detail/18647/chess-tile---pawn-by-portablejim</dc:source>
        <dc:creator>
          <cc:Agent>
            <dc:title>portablejim</dc:title>
          </cc:Agent>
        </dc:creator>
        <dc:subject>
          <rdf:Bag>
            <rdf:li>black</rdf:li>
            <rdf:li>chess</rdf:li>
            <rdf:li>externalsource</rdf:li>
            <rdf:li>game</rdf:li>
            <rdf:li>icon</rdf:li>
            <rdf:li>pawn</rdf:li>
            <rdf:li>white</rdf:li>
          </rdf:Bag>
        </dc:subject>
      </cc:Work>
      <cc:License
         rdf:about="http://creativecommons.org/publicdomain/zero/1.0/">
        <cc:permits
           rdf:resource="http://creativecommons.org/ns#Reproduction" />
        <cc:permits
           rdf:resource="http://creativecommons.org/ns#Distribution" />
        <cc:permits
           rdf:resource="http://creativecommons.org/ns#DerivativeWorks" />
      </cc:License>
    </rdf:RDF>
  </metadata>
</svg>
