<?xml version="1.0" encoding="UTF-8" standalone="no"?>
<!-- Created with Inkscape (http://www.inkscape.org/) -->

<svg
   xmlns:dc="http://purl.org/dc/elements/1.1/"
   xmlns:cc="http://creativecommons.org/ns#"
   xmlns:rdf="http://www.w3.org/1999/02/22-rdf-syntax-ns#"
   xmlns:svg="http://www.w3.org/2000/svg"
   xmlns="http://www.w3.org/2000/svg"
   xmlns:sodipodi="http://sodipodi.sourceforge.net/DTD/sodipodi-0.dtd"
   xmlns:inkscape="http://www.inkscape.org/namespaces/inkscape"
   id="svg2443"
   viewBox="0 0 504 504"
   version="1.0"
   sodipodi:docname="q.svg"
   width="504"
   height="504"
   inkscape:version="0.92.5 (2060ec1f9f, 2020-04-08)">
  <defs
     id="defs132">
    <clipPath
       clipPathUnits="userSpaceOnUse"
       id="clipPath140">
      <rect
         id="rect142"
         width="504"
         height="504"
         x="506.01309"
         y="-0.013127109" />
    </clipPath>
  </defs>
  <sodipodi:namedview
     pagecolor="#ffffff"
     bordercolor="#666666"
     borderopacity="1"
     objecttolerance="10"
     gridtolerance="10"
     guidetolerance="10"
     inkscape:pageopacity="0"
     inkscape:pageshadow="2"
     inkscape:window-width="2558"
     inkscape:window-height="1414"
     id="namedview130"
     showgrid="false"
     inkscape:zoom="2"
     inkscape:cx="446.23026"
     inkscape:cy="267.31917"
     inkscape:window-x="0"
     inkscape:window-y="0"
     inkscape:window-maximized="0"
     inkscape:current-layer="svg2443" />
  <g
     id="layer1"
     clip-path="url(#clipPath140)"
     transform="translate(-497.01309,0.5)">
    <g
       id="g2466"
       transform="translate(-15.389,-156.54)">
      <path
         id="path2611"
         style="fill:#000000"
         d="m 180.92,473.61 c -20.71,-1.46 -39.95,-5.48 -55.39,-11.58 -9.34,-3.69 -21.01,-9.7 -22.02,-11.34 -0.32,-0.52 3.71,-10.81 8.95,-22.88 5.25,-12.06 9.54,-22.45 9.54,-23.09 0,-1.26 -15.85,-37.93 -18.99,-43.93 -1.04,-1.99 -9.971,-13.46 -19.852,-25.49 L 65.193,313.41 64.009,303.8 c -0.652,-5.3 -5.545,-44.5 -10.874,-87.12 l -9.69,-77.5 -5.696,-0.71 c -16.446,-2.06 -26.268,-16.68 -21.282,-31.69 2.119,-6.38 5.358,-10.329 11.388,-13.874 3.944,-2.318 5.777,-2.73 12.145,-2.73 6.368,0 8.201,0.412 12.145,2.73 6.03,3.545 9.269,7.494 11.388,13.874 3.618,10.89 -1.093,23.07 -11.086,28.67 -1.156,0.64 6.241,16.63 36.683,79.27 20.97,43.15 38.19,78.54 38.27,78.64 0.2,0.28 10.7,-187.8 10.65,-190.82 -0.04,-2.25 -0.67,-2.783 -4.35,-3.71 -5.97,-1.503 -12.05,-6.19 -15.38,-11.862 -2.42,-4.117 -2.82,-5.861 -2.82,-12.371 0,-6.687 0.36,-8.157 3.03,-12.5 10.05,-16.328 32.89,-16.328 42.94,0 2.68,4.354 3.03,5.804 3.03,12.579 0,6.764 -0.35,8.23 -3.02,12.578 -1.8,2.937 -5.05,6.263 -8.06,8.249 l -5.04,3.328 31.56,91.419 c 17.35,50.29 31.78,91.43 32.06,91.42 0.34,0 33.13,-186.55 35.38,-201.3 0.06,-0.448 -1.57,-1.407 -3.63,-2.136 -5.52,-1.947 -10.34,-6.006 -13.48,-11.342 -2.37,-4.034 -2.77,-5.814 -2.77,-12.295 0,-6.687 0.36,-8.157 3.03,-12.5 10.05,-16.328 32.89,-16.328 42.94,0 2.67,4.343 3.03,5.813 3.03,12.5 0,6.481 -0.4,8.261 -2.77,12.295 -3.14,5.336 -7.96,9.395 -13.48,11.342 -2.06,0.729 -3.69,1.688 -3.63,2.133 2.25,14.752 35.04,201.3 35.38,201.3 0.28,0.01 14.71,-41.13 32.06,-91.42 L 355.62,98.828 350.58,95.5 c -3.01,-1.986 -6.26,-5.312 -8.06,-8.249 -2.67,-4.348 -3.02,-5.814 -3.02,-12.578 0,-6.775 0.35,-8.225 3.03,-12.579 10.05,-16.328 32.89,-16.328 42.94,0 2.67,4.343 3.03,5.813 3.03,12.5 0,6.51 -0.4,8.254 -2.82,12.371 -3.33,5.672 -9.41,10.359 -15.38,11.862 -3.68,0.927 -4.31,1.46 -4.35,3.71 -0.05,3.02 10.45,191.1 10.65,190.82 0.08,-0.1 17.3,-35.49 38.27,-78.64 30.44,-62.64 37.84,-78.63 36.68,-79.27 -9.99,-5.6 -14.7,-17.78 -11.08,-28.67 2.12,-6.38 5.35,-10.329 11.39,-13.874 3.94,-2.318 5.77,-2.73 12.14,-2.73 6.37,0 8.2,0.412 12.14,2.73 6.03,3.545 9.27,7.494 11.39,13.874 4.99,15.01 -4.83,29.63 -21.28,31.69 l -5.69,0.71 -9.69,77.5 c -5.33,42.62 -10.23,81.82 -10.88,87.12 l -1.18,9.61 -17.97,21.89 c -9.88,12.03 -18.81,23.5 -19.85,25.49 -3.14,6 -18.99,42.67 -18.99,43.93 0,0.64 4.29,11.03 9.54,23.09 5.24,12.07 9.27,22.36 8.95,22.88 -2.29,3.71 -26.34,13.78 -41.79,17.51 -22.4,5.39 -26.88,5.66 -99.7,5.91 -37.12,0.13 -72.26,-0.1 -78.08,-0.5 z"
         transform="translate(520.31,156.54)"
         inkscape:connector-curvature="0" />
      <path
         id="path2388"
         style="fill:#ffffff"
         d="m 130.5,361.67 c 17.3,-6.48 34.44,-11.38 52.5,-15.01 26.37,-5.31 37.84,-6.37 69,-6.37 31.16,0 42.63,1.06 69,6.37 18.15,3.65 35.22,8.54 52.8,15.13 14.96,5.6 17.33,5.69 20.14,0.69 2.31,-4.12 0.55,-7.81 -5.05,-10.59 -8.28,-4.12 -32.46,-12.06 -49.1,-16.14 -32.98,-8.09 -53.46,-10.55 -87.79,-10.55 -15.57,0 -30.83,0.53 -37,1.29 -34.44,4.24 -64.52,11.5 -92.74,22.38 -10.48,4.04 -13.26,6.26 -13.26,10.57 0,2.67 4.12,7.24 6.53,7.24 0.9,0 7.63,-2.26 14.97,-5.01 z"
         transform="translate(520.31,156.54)"
         inkscape:connector-curvature="0" />
      <path
         id="path2386"
         style="fill:#ffffff"
         d="m 154,404.88 c 19.95,-8.59 40.61,-14.45 63,-17.88 16.03,-2.46 53.87,-2.47 70,-0.02 23.34,3.54 45.84,10.18 68.41,20.18 10.27,4.55 12.34,5.15 14.79,4.3 5.51,-1.92 6.5,-8.18 1.91,-12.04 -6.92,-5.82 -40.52,-18.32 -62.11,-23.1 -22.62,-5.01 -32.89,-6.09 -58,-6.09 -25.11,0 -35.38,1.08 -58,6.09 -21.59,4.78 -55.19,17.28 -62.11,23.1 -4.52,3.8 -3.78,9.56 1.5,11.78 2.55,1.07 3.62,1.07 6.1,-0.03 1.66,-0.74 8.19,-3.57 14.51,-6.29 z"
         transform="translate(520.31,156.54)"
         inkscape:connector-curvature="0" />
      <path
         id="path2384"
         style="fill:#ffffff"
         d="m 121.8,456.29 c 5.19,-2.68 34.81,-12.38 47.2,-15.46 14.12,-3.51 30.3,-6.41 46.5,-8.33 14.35,-1.69 58.65,-1.69 73,0 31.86,3.77 61.03,10.95 88.71,21.83 l 8.71,3.43 4.09,-2.09 c 4.57,-2.33 5.5,-3.85 4.58,-7.49 -0.81,-3.25 -6.18,-5.92 -24.59,-12.27 -78.2,-26.95 -157.8,-26.95 -236,0 -18.41,6.35 -23.78,9.02 -24.59,12.27 -0.9,3.59 0,5.14 4.29,7.4 4.61,2.43 4.72,2.44 8.1,0.71 z"
         transform="translate(520.31,156.54)"
         inkscape:connector-curvature="0" />
    </g>
    <g
       id="g2496"
       transform="translate(-311.87,-446.86)">
      <path
         id="path2396"
         style="fill:#000000"
         d="M 186,482.9 C 156.82,481.37 128.97,474.4 107.65,463.3 97.239,457.87 94,454.91 94,450.82 c 0,-1.39 4.271,-12.32 9.49,-24.31 l 9.49,-21.79 -8.92,-20.48 -8.923,-20.49 -18.239,-22.33 C 66.867,329.14 58.201,318.5 57.641,317.77 57.081,317.04 51.866,278.42 46.053,231.96 L 35.484,147.48 28.871,145.26 C 20.791,142.54 15.722,138.8 11.855,132.72 5.0285,121.97 4.3748,110.37 9.9568,99.033 15.673,87.422 26.1398,81.214 39.9998,81.214 c 13.86,0 24.327,6.208 30.043,17.819 6.625,13.457 4.668,25.647 -6.433,40.077 -0.577,0.75 9.249,21.99 27.992,60.52 l 28.878,59.37 4.2,-72.95 c 2.3,-40.12 4.22,-74.41 4.25,-76.18 0.06,-2.75 -0.49,-3.52 -3.68,-5.17 -6.73,-3.47 -12.03,-8.905 -15.46,-15.875 -8.4,-17.07 -1.02,-36.417 17.21,-45.097 11.28,-5.371 25.13,-2.933 35.71,6.286 2.49,2.172 5.55,6.39 7.5,10.353 2.84,5.77 3.29,7.721 3.29,14.229 0,6.508 -0.45,8.459 -3.29,14.229 -1.94,3.93 -4.96,8.112 -7.33,10.143 l -4.04,3.452 24.83,72.07 c 13.66,39.64 25.08,72.08 25.37,72.09 0.3,0.01 6.86,-36.32 14.57,-80.72 l 14.02,-80.737 -4.29,-2.843 c -9.57,-6.336 -14.82,-16.151 -14.83,-27.705 -0.02,-13.445 7.41,-24.618 20.49,-30.847 7.79,-3.707 18.21,-3.707 26,0 8.15,3.881 13.45,9.005 17.21,16.639 2.84,5.772 3.29,7.717 3.28,14.208 -0.01,11.554 -5.26,21.369 -14.83,27.705 l -4.29,2.843 14.02,80.737 c 7.71,44.4 14.27,80.73 14.57,80.72 0.29,-0.01 11.71,-32.45 25.37,-72.09 l 24.83,-72.07 -4.04,-3.452 c -2.37,-2.031 -5.39,-6.213 -7.33,-10.143 -8.4,-17.07 -1.02,-36.417 17.21,-45.097 7.79,-3.707 18.21,-3.707 26,0 8.15,3.881 13.45,9.005 17.21,16.639 2.84,5.77 3.29,7.721 3.29,14.229 0,6.508 -0.45,8.459 -3.29,14.229 -3.43,6.97 -8.73,12.405 -15.46,15.875 -3.19,1.65 -3.74,2.42 -3.68,5.17 0.03,1.77 1.95,36.06 4.25,76.18 l 4.2,72.95 28.88,-59.37 c 18.74,-38.53 28.57,-59.77 27.99,-60.52 -11.1,-14.43 -13.06,-26.62 -6.43,-40.077 5.71,-11.611 16.18,-17.819 30.04,-17.819 13.86,0 24.33,6.208 30.04,17.819 5.59,11.337 4.93,22.937 -1.89,33.687 -3.87,6.08 -8.94,9.82 -17.02,12.54 l -6.61,2.22 -10.57,84.48 c -5.82,46.46 -11.03,85.08 -11.59,85.81 -0.56,0.73 -9.23,11.37 -19.26,23.65 l -18.24,22.33 -8.92,20.49 -8.92,20.48 9.49,21.79 c 5.22,11.99 9.49,22.92 9.49,24.31 0,4.09 -3.24,7.05 -13.65,12.48 -16.52,8.6 -36.61,14.69 -59.29,17.97 -8.52,1.23 -23.61,1.57 -78.06,1.72 -37.12,0.11 -69.97,0.07 -73,-0.09 z"
         transform="translate(319.92,446.86)"
         inkscape:connector-curvature="0" />
      <path
         id="path2411"
         style="fill:#ffffff"
         d="M 260.08,68.322 C 265.26,64.83 268,60.084 268,54.596 268,42.39 253.73,34.257 243.92,40.87 238.74,44.363 236,49.109 236,54.596 c 0,12.207 14.27,20.339 24.08,13.726 z"
         transform="translate(319.92,446.86)"
         inkscape:connector-curvature="0" />
      <path
         id="path2409"
         style="fill:#ffffff"
         d="M 372.08,88.322 C 377.26,84.83 380,80.084 380,74.596 380,69.109 377.26,64.363 372.08,60.87 362.27,54.257 348,62.39 348,74.596 c 0,12.207 14.27,20.339 24.08,13.726 z"
         transform="translate(319.92,446.86)"
         inkscape:connector-curvature="0" />
      <path
         id="path2407"
         style="fill:#ffffff"
         d="m 148.08,88.322 c 10.64,-7.17 10.64,-20.282 0,-27.452 -9.81,-6.613 -24.08,1.52 -24.08,13.726 0,12.207 14.27,20.339 24.08,13.726 z"
         transform="translate(319.92,446.86)"
         inkscape:connector-curvature="0" />
      <path
         id="path2405"
         style="fill:#ffffff"
         d="m 471.98,127.84 c 5.18,-2.6 8.02,-7.47 8.02,-13.74 0,-9.23 -6.47,-15.501 -16,-15.501 -9.53,0 -16,6.271 -16,15.501 0,9.22 6.47,15.49 16,15.49 2.48,0 6.07,-0.78 7.98,-1.75 z"
         transform="translate(319.92,446.86)"
         inkscape:connector-curvature="0" />
      <path
         id="path2403"
         style="fill:#ffffff"
         d="m 47.98,127.84 c 10.821,-5.43 10.821,-22.06 0,-27.49 -4.452,-2.239 -11.508,-2.239 -15.96,0 -10.821,5.43 -10.821,22.06 0,27.49 1.914,0.97 5.505,1.75 7.98,1.75 2.475,0 6.066,-0.78 7.98,-1.75 z"
         transform="translate(319.92,446.86)"
         inkscape:connector-curvature="0" />
      <path
         id="path2401"
         style="fill:#ffffff"
         d="m 230.92,268.01 c 3.62,-1.98 8.61,-5.28 11.08,-7.34 8.97,-7.47 11.33,-7.56 19.13,-0.74 4.45,3.9 18.6,12.34 19.3,11.52 C 280.9,270.9 252.57,108.6 252,108.6 c -0.28,0 -6.75,36.11 -14.4,80.25 -7.64,44.14 -14.1,80.81 -14.35,81.5 -0.71,1.92 0.55,1.54 7.67,-2.34 z"
         transform="translate(319.92,446.86)"
         inkscape:connector-curvature="0" />
      <path
         id="path2399"
         style="fill:#ffffff"
         d="m 366.53,274.85 c -0.33,-3.72 -2.38,-38.93 -4.56,-78.25 -2.18,-39.33 -4.08,-72.69 -4.22,-74.15 -0.14,-1.53 -11.34,29.55 -26.65,74 -14.52,42.16 -26.64,77.28 -26.92,78.06 -0.86,2.34 12.98,0.49 22.79,-3.05 12.51,-4.51 14.34,-4.63 18.78,-1.22 3.72,2.84 19.01,11.27 20.56,11.33 0.45,0.01 0.54,-3.01 0.22,-6.72 z"
         transform="translate(319.92,446.86)"
         inkscape:connector-curvature="0" />
      <path
         id="path2397"
         style="fill:#ffffff"
         d="m 145.27,277.98 c 3.98,-2 9.38,-5.19 12.01,-7.11 5.61,-4.09 6.87,-4.05 19.75,0.59 9.81,3.54 23.65,5.39 22.79,3.05 -0.28,-0.78 -12.4,-35.9 -26.92,-78.06 -15.31,-44.45 -26.51,-75.53 -26.65,-74 -0.14,1.46 -2.04,34.82 -4.22,74.15 -2.18,39.32 -4.23,74.53 -4.56,78.25 -0.32,3.71 -0.33,6.75 -0.01,6.75 0.33,0 3.84,-1.63 7.81,-3.62 z"
         transform="translate(319.92,446.86)"
         inkscape:connector-curvature="0" />
      <path
         id="path2394"
         style="fill:#ffffff"
         d="m 439.94,232.1 c 4.4,-35.15 7.87,-64.03 7.71,-64.19 -0.26,-0.25 -55.92,113.73 -57.44,117.6 -0.46,1.19 1.08,1.28 9.87,0.59 17.73,-1.38 16.73,-1.57 24.47,4.71 3.82,3.1 7.04,5.53 7.16,5.41 0.13,-0.13 3.83,-28.98 8.23,-64.12 z"
         transform="translate(319.92,446.86)"
         inkscape:connector-curvature="0" />
      <path
         id="path2392"
         style="fill:#ffffff"
         d="m 86.55,285.77 c 1.986,-1.04 3.986,-1.09 9.427,-0.25 9.703,1.51 18.373,1.42 17.743,-0.17 -1.48,-3.8 -57.121,-117.69 -57.365,-117.44 -0.161,0.16 3.287,28.84 7.664,63.74 4.376,34.89 7.962,63.81 7.969,64.26 0.007,0.45 2.719,-1.35 6.027,-4 3.308,-2.65 7.149,-5.41 8.535,-6.14 z"
         transform="translate(319.92,446.86)"
         inkscape:connector-curvature="0" />
      <path
         id="path2390"
         style="fill:#ffffff"
         d="m 113.07,346.04 c 90.16,-31.01 187.7,-31 277.87,0.01 4.1,1.41 7.77,2.22 8.16,1.8 2.43,-2.57 26.85,-32.85 26.83,-33.25 -0.02,-0.28 -3.23,-3.01 -7.14,-6.08 l -7.11,-5.57 -5.59,0.92 c -17.34,2.85 -42.85,-2.75 -61.38,-13.48 l -6.79,-3.93 -7.71,2.53 c -25.17,8.26 -50.44,4.76 -72.96,-10.12 l -5.25,-3.47 -5.25,3.47 c -12.75,8.42 -27.44,13.43 -42.3,14.41 -10.35,0.68 -19.36,-0.58 -30.66,-4.29 l -7.71,-2.53 -6.79,3.93 c -18.53,10.73 -44.04,16.33 -61.381,13.48 l -5.591,-0.92 -7.107,5.57 c -3.908,3.07 -7.018,5.89 -6.909,6.28 0.171,0.61 26.908,33.8 27.228,33.8 0.07,0 3.46,-1.15 7.54,-2.56 z"
         transform="translate(319.92,446.86)"
         inkscape:connector-curvature="0" />
      <path
         id="path2510"
         style="fill:#ffffff"
         d="m 151.2,384.76 c 66.18,-21.42 135.42,-21.42 201.6,0 8.42,2.72 17.27,5.79 19.67,6.82 3.17,1.36 4.51,1.55 4.87,0.7 0.27,-0.65 3.18,-7.31 6.45,-14.81 l 5.95,-13.62 -3.62,-1.16 C 319.15,341.27 260.34,335.74 194.5,344.67 c -24.83,3.36 -47.34,8.66 -76.62,18.02 l -3.62,1.16 5.95,13.62 c 3.27,7.5 6.18,14.16 6.45,14.81 0.36,0.85 1.7,0.66 4.87,-0.7 2.4,-1.03 11.25,-4.1 19.67,-6.82 z"
         transform="translate(319.92,446.86)"
         inkscape:connector-curvature="0" />
      <path
         id="path2512"
         style="fill:#ffffff"
         d="m 151.5,426.08 c 19.55,-4.83 40.86,-8.57 60.5,-10.64 16.29,-1.71 63.71,-1.71 80,0 27.32,2.87 65.82,10.76 85.75,17.56 3.99,1.36 7.25,2.3 7.25,2.07 0,-0.22 -2.19,-5.48 -4.87,-11.69 -5.79,-13.43 -4.87,-12.78 -30.35,-21.23 -17.35,-5.76 -37.27,-10.24 -58.78,-13.23 -17.53,-2.43 -60.47,-2.43 -78,0 -21.51,2.99 -41.43,7.47 -58.78,13.23 -25.48,8.45 -24.56,7.8 -30.35,21.23 -2.68,6.21 -4.87,11.47 -4.87,11.69 0,0.23 3.26,-0.71 7.25,-2.07 3.99,-1.36 15.35,-4.47 25.25,-6.92 z"
         transform="translate(319.92,446.86)"
         inkscape:connector-curvature="0" />
      <path
         id="path2514"
         style="fill:#ffffff"
         d="m 337,463.28 c 13.86,-2.01 22.5,-4.02 33.87,-7.9 l 9.36,-3.19 -6.86,-2.33 c -11.2,-3.79 -37.79,-10.04 -53.87,-12.66 -24.9,-4.06 -38.43,-5.08 -67.5,-5.08 -29.07,0 -42.6,1.02 -67.5,5.08 -16.08,2.62 -42.67,8.87 -53.87,12.66 l -6.86,2.33 9.36,3.21 c 15.15,5.19 33.46,8.48 52.87,9.5 3.02,0.16 35.88,0.2 73,0.09 54.33,-0.15 69.55,-0.49 78,-1.71 z"
         transform="translate(319.92,446.86)"
         inkscape:connector-curvature="0" />
    </g>
  </g>
  <metadata
     id="metadata127">
    <rdf:RDF>
      <cc:Work>
        <dc:format>image/svg+xml</dc:format>
        <dc:type
           rdf:resource="http://purl.org/dc/dcmitype/StillImage" />
        <cc:license
           rdf:resource="http://creativecommons.org/publicdomain/zero/1.0/" />
        <dc:publisher>
          <cc:Agent
             rdf:about="http://openclipart.org/">
            <dc:title>Openclipart</dc:title>
          </cc:Agent>
        </dc:publisher>
        <dc:title></dc:title>
        <dc:date>2008-08-26T09:17:47</dc:date>
        <dc:description>A light and dark (black and white) queen for use in chess board templates. Source: http://commons.wikimedia.org/wiki/Image:Chess_tile_ql.png http://commons.wikimedia.org/wiki/Image:Chess_tile_qd.png</dc:description>
        <dc:source>https://openclipart.org/detail/18659/chess-tile---queen-by-portablejim</dc:source>
        <dc:creator>
          <cc:Agent>
            <dc:title>portablejim</dc:title>
          </cc:Agent>
        </dc:creator>
        <dc:subject>
          <rdf:Bag>
            <rdf:li>black</rdf:li>
            <rdf:li>chess</rdf:li>
            <rdf:li>externalsource</rdf:li>
            <rdf:li>game</rdf:li>
            <rdf:li>icon</rdf:li>
            <rdf:li>queen</rdf:li>
            <rdf:li>white</rdf:li>
          </rdf:Bag>
        </dc:subject>
      </cc:Work>
      <cc:License
         rdf:about="http://creativecommons.org/publicdomain/zero/1.0/">
        <cc:permits
           rdf:resource="http://creativecommons.org/ns#Reproduction" />
        <cc:permits
           rdf:resource="http://creativecommons.org/ns#Distribution" />
        <cc:permits
           rdf:resource="http://creativecommons.org/ns#DerivativeWorks" />
      </cc:License>
    </rdf:RDF>
  </metadata>
</svg>
